<svg height="340pt" viewBox="0 -6 340 340" width="340pt" xmlns="http://www.w3.org/2000/svg"><path d="m130.007812 170.277344 196.972657 155.5c1.414062 1.117187 3.160156 1.722656 4.960937 1.722656 1.214844 0 2.417969-.273438 3.519532-.800781 2.765624-1.332031 4.527343-4.128907 4.539062-7.199219v-311c-.015625-3.070312-1.777344-5.863281-4.539062-7.195312-2.765626-1.335938-6.046876-.980469-8.460938.917968l-196.984375 155.5c-1.921875 1.515625-3.046875 3.828125-3.046875 6.277344 0 2.445312 1.117188 4.761719 3.039062 6.277344zm0 0"/><path d="m8 0h71c4.417969 0 8 3.582031 8 8v311c0 4.417969-3.582031 8-8 8h-71c-4.417969 0-8-3.582031-8-8v-311c0-4.417969 3.582031-8 8-8zm0 0"/></svg>